<svg id="Слой_1" data-name="Слой 1" xmlns="http://www.w3.org/2000/svg" viewBox="0 0 800 800"><path d="M384.38,292.75c-16.86-19.09-47.61-22.76-68.45-8.07-22-2.89-44.65,2.83-63.8,13.77C207.07,323.83,163,363.65,110,368.66c-26.46,2.12-50.36-11.38-70.8-26.91L25.5,361.82c91.63,67.4,159.2-4,235.62-53.8,13.3-7.84,28.51-13.06,44-13.59-15.8,18.28-16.36,47.28-1.22,66.13-89.87.08-112.41,127.34-27.73,158.16,37.92,14.59,82.51-4,100.92-39.7L366.2,470.3c-23,46.4-93.27,46.58-113.47-1.59C228.32,419,282.25,358.38,333.61,380h0l5,1.83,4.45-12.23c-2.53-.95-7.88-2.84-10.36-3.77a53.39,53.39,0,0,1-6.9-5.94c-20-17.71-14.83-49.54,8.48-61.5,19.25,5.94,36.59,17.54,50.77,31.79q0,.94-.12,1.89l.19-1.81,12.15,9.58C400,323.13,396.19,305.26,384.38,292.75ZM376.26,313a130.76,130.76,0,0,0-28.38-18.69c18.81-2.06,32.81,7.38,36.45,26.14C381.74,317.83,379,315.35,376.26,313Z"/><path d="M768.5,403.82c-33.46-39.15-89.23-60-137.45-35.51-3.26,1.52-6.95,3.58-10.08,5.37-20.38,12.91-42,29.11-62.15,42.23a81.64,81.64,0,0,0-23.39-32.73c32.2-6.09,51.3-44.39,36.63-73.75-15.18-36.28-71.73-41.24-91.47-7l11.09,6.76c7.72-12.84,23-17.07,36.3-11.94,52.1,21.75,15.65,84.59-23.33,69.44h0l-5-1.83-4.45,12.22c23.81,6.72,41.81,26.19,46,49.89-40.45,25.19-82.8,35-124.86,7.12l.06-.52c-2.86-1.86-9.22-6.11-12.1-8.05v.06l0,0c-9.86,49.16,26.8,103.14,78.72,101.51,49.29,1.29,90.49-48.32,80.1-96.51,21.86-13.07,44.57-29.08,66.44-42.1a127.73,127.73,0,0,1,14-6.52c43.48-17.36,89.36,8.07,114.62,43.91l17.37-13.7ZM454.1,461c30.52,6.34,61.45-4.29,88.12-18.57-4.47,80.1-121,83.94-126.31,3C427.65,452.7,440.41,458.37,454.1,461Z"/><path d="M400,10A390.11,390.11,0,0,1,551.8,759.36,390.11,390.11,0,0,1,248.2,40.64,387.6,387.6,0,0,1,400,10m0-10C179.09,0,0,179.09,0,400S179.09,800,400,800,800,620.91,800,400,620.91,0,400,0Z"/></svg>